<mxfile host="app.diagrams.net" modified="2022-04-22T11:30:39.484Z" agent="5.0 (Macintosh)" etag="77ie2KWR8uU2f-9gDkWE" version="17.4.6" type="github">
  <diagram name="Page-1" id="10a91c8b-09ff-31b1-d368-03940ed4cc9e">
    <mxGraphModel dx="1060" dy="640" grid="1" gridSize="10" guides="1" tooltips="1" connect="1" arrows="1" fold="1" page="1" pageScale="1" pageWidth="1100" pageHeight="850" background="none" math="0" shadow="0">
      <root>
        <mxCell id="0" />
        <mxCell id="1" parent="0" />
        <mxCell id="62893188c0fa7362-1" value="User Joins" style="whiteSpace=wrap;html=1;rounded=1;shadow=1;labelBackgroundColor=none;strokeWidth=1;fontFamily=Verdana;fontSize=12;align=center;" parent="1" vertex="1">
          <mxGeometry x="60" y="10" width="120" height="60" as="geometry" />
        </mxCell>
        <mxCell id="62893188c0fa7362-2" value="Welcome DM" style="whiteSpace=wrap;html=1;rounded=1;shadow=1;labelBackgroundColor=none;strokeWidth=1;fontFamily=Verdana;fontSize=12;align=center;" parent="1" vertex="1">
          <mxGeometry x="190" y="90" width="120" height="60" as="geometry" />
        </mxCell>
        <mxCell id="62893188c0fa7362-3" value="#Welcome" style="whiteSpace=wrap;html=1;rounded=1;shadow=1;labelBackgroundColor=none;strokeWidth=1;fontFamily=Verdana;fontSize=12;align=center;" parent="1" vertex="1">
          <mxGeometry x="260" y="10" width="120" height="60" as="geometry" />
        </mxCell>
        <mxCell id="62893188c0fa7362-4" value="" style="rounded=0;html=1;labelBackgroundColor=none;startArrow=none;startFill=0;startSize=5;endArrow=none;endFill=0;endSize=5;jettySize=auto;orthogonalLoop=1;strokeWidth=1;fontFamily=Verdana;fontSize=12" parent="1" source="62893188c0fa7362-1" target="62893188c0fa7362-3" edge="1">
          <mxGeometry x="-0.3002" y="13" relative="1" as="geometry">
            <mxPoint as="offset" />
          </mxGeometry>
        </mxCell>
        <mxCell id="62893188c0fa7362-5" value="" style="rounded=0;html=1;labelBackgroundColor=none;startArrow=none;startFill=0;startSize=5;endArrow=none;endFill=0;endSize=5;jettySize=auto;orthogonalLoop=1;strokeWidth=1;fontFamily=Verdana;fontSize=12" parent="1" source="62893188c0fa7362-1" target="62893188c0fa7362-2" edge="1">
          <mxGeometry x="-0.359" y="-11" relative="1" as="geometry">
            <mxPoint as="offset" />
          </mxGeometry>
        </mxCell>
        <mxCell id="62893188c0fa7362-8" value="Asks user" style="whiteSpace=wrap;html=1;rounded=1;shadow=1;labelBackgroundColor=none;strokeWidth=1;fontFamily=Verdana;fontSize=12;align=center;" parent="1" vertex="1">
          <mxGeometry x="340" y="90" width="120" height="60" as="geometry" />
        </mxCell>
        <mxCell id="62893188c0fa7362-12" value="New customer?" style="whiteSpace=wrap;html=1;rounded=1;shadow=1;labelBackgroundColor=none;strokeWidth=1;fontFamily=Verdana;fontSize=12;align=center;" parent="1" vertex="1">
          <mxGeometry x="270" y="170" width="120" height="60" as="geometry" />
        </mxCell>
        <mxCell id="62893188c0fa7362-13" value="Already customer?" style="whiteSpace=wrap;html=1;rounded=1;shadow=1;labelBackgroundColor=none;strokeWidth=1;fontFamily=Verdana;fontSize=12;align=center;" parent="1" vertex="1">
          <mxGeometry x="450" y="170" width="120" height="60" as="geometry" />
        </mxCell>
        <mxCell id="62893188c0fa7362-14" value="" style="rounded=0;html=1;labelBackgroundColor=none;startArrow=none;startFill=0;startSize=5;endArrow=none;endFill=0;endSize=5;jettySize=auto;orthogonalLoop=1;strokeWidth=1;fontFamily=Verdana;fontSize=12" parent="1" source="62893188c0fa7362-2" target="62893188c0fa7362-8" edge="1">
          <mxGeometry x="-0.2" y="-14" relative="1" as="geometry">
            <mxPoint as="offset" />
          </mxGeometry>
        </mxCell>
        <mxCell id="62893188c0fa7362-18" value="" style="rounded=0;html=1;labelBackgroundColor=none;startArrow=none;startFill=0;startSize=5;endArrow=none;endFill=0;endSize=5;jettySize=auto;orthogonalLoop=1;strokeWidth=1;fontFamily=Verdana;fontSize=12" parent="1" source="62893188c0fa7362-8" target="62893188c0fa7362-12" edge="1">
          <mxGeometry x="-0.2168" y="-14" relative="1" as="geometry">
            <mxPoint as="offset" />
          </mxGeometry>
        </mxCell>
        <mxCell id="62893188c0fa7362-19" value="" style="rounded=0;html=1;labelBackgroundColor=none;startArrow=none;startFill=0;startSize=5;endArrow=none;endFill=0;endSize=5;jettySize=auto;orthogonalLoop=1;strokeWidth=1;fontFamily=Verdana;fontSize=12" parent="1" source="62893188c0fa7362-8" target="62893188c0fa7362-13" edge="1">
          <mxGeometry x="-0.2842" y="12" relative="1" as="geometry">
            <mxPoint as="offset" />
          </mxGeometry>
        </mxCell>
        <mxCell id="62893188c0fa7362-24" value="" style="rounded=0;html=1;labelBackgroundColor=none;startArrow=none;startFill=0;startSize=5;endArrow=none;endFill=0;endSize=5;jettySize=auto;orthogonalLoop=1;strokeWidth=1;fontFamily=Verdana;fontSize=12;entryX=0.5;entryY=0;entryDx=0;entryDy=0;" parent="1" source="62893188c0fa7362-12" target="ZgFY1jkxqWkdZP5Hp9M9-2" edge="1">
          <mxGeometry x="0.1373" y="-16" relative="1" as="geometry">
            <mxPoint as="offset" />
            <mxPoint x="165.20000000000005" y="540" as="targetPoint" />
          </mxGeometry>
        </mxCell>
        <mxCell id="62893188c0fa7362-26" value="Yes" style="rounded=0;html=1;labelBackgroundColor=none;startArrow=none;startFill=0;startSize=5;endArrow=none;endFill=0;endSize=5;jettySize=auto;orthogonalLoop=1;strokeWidth=1;fontFamily=Verdana;fontSize=12;entryX=0.5;entryY=0;entryDx=0;entryDy=0;" parent="1" source="62893188c0fa7362-13" target="ZgFY1jkxqWkdZP5Hp9M9-4" edge="1">
          <mxGeometry x="0.0033" y="-12" relative="1" as="geometry">
            <mxPoint as="offset" />
            <mxPoint x="488.8461538461538" y="550" as="targetPoint" />
          </mxGeometry>
        </mxCell>
        <mxCell id="62893188c0fa7362-27" value="No" style="rounded=0;html=1;labelBackgroundColor=none;startArrow=none;startFill=0;startSize=5;endArrow=none;endFill=0;endSize=5;jettySize=auto;orthogonalLoop=1;strokeWidth=1;fontFamily=Verdana;fontSize=12;entryX=0.5;entryY=0;entryDx=0;entryDy=0;" parent="1" source="62893188c0fa7362-13" target="ZgFY1jkxqWkdZP5Hp9M9-5" edge="1">
          <mxGeometry x="0.1373" y="16" relative="1" as="geometry">
            <mxPoint as="offset" />
            <mxPoint x="910" y="520" as="targetPoint" />
          </mxGeometry>
        </mxCell>
        <mxCell id="ZgFY1jkxqWkdZP5Hp9M9-2" value="Help you order?" style="whiteSpace=wrap;html=1;rounded=1;shadow=1;labelBackgroundColor=none;strokeWidth=1;fontFamily=Verdana;fontSize=12;align=center;" vertex="1" parent="1">
          <mxGeometry x="200" y="250" width="120" height="60" as="geometry" />
        </mxCell>
        <mxCell id="ZgFY1jkxqWkdZP5Hp9M9-4" value="&lt;div&gt;A list of bots commands to get help in future&lt;/div&gt;&lt;div&gt;&lt;br&gt;&lt;/div&gt;&lt;div&gt;/ticket&lt;/div&gt;&lt;div&gt;/wiki&lt;/div&gt;&lt;div&gt;etc&lt;br&gt;&lt;/div&gt;" style="whiteSpace=wrap;html=1;rounded=1;shadow=1;labelBackgroundColor=none;strokeWidth=1;fontFamily=Verdana;fontSize=12;align=center;" vertex="1" parent="1">
          <mxGeometry x="580" y="210" width="180" height="90" as="geometry" />
        </mxCell>
        <mxCell id="ZgFY1jkxqWkdZP5Hp9M9-5" value="Link account?" style="whiteSpace=wrap;html=1;rounded=1;shadow=1;labelBackgroundColor=none;strokeWidth=1;fontFamily=Verdana;fontSize=12;align=center;" vertex="1" parent="1">
          <mxGeometry x="580" y="120" width="120" height="60" as="geometry" />
        </mxCell>
        <mxCell id="ZgFY1jkxqWkdZP5Hp9M9-6" value="Select your essentials:&lt;br&gt;[X] Regular content&lt;br&gt;[&amp;nbsp;&amp;nbsp; ] 4K content&lt;br&gt;[&amp;nbsp;&amp;nbsp; ] Anime&lt;br&gt;[&amp;nbsp;&amp;nbsp; ] Audiobooks&lt;br&gt;&lt;br&gt;Select your location:&lt;br&gt;[&amp;nbsp;&amp;nbsp;&amp;nbsp; ] Central Europe&lt;br&gt;[&amp;nbsp;&amp;nbsp;&amp;nbsp; ] North UK / Northern Ireland&lt;br&gt;[&amp;nbsp;&amp;nbsp;&amp;nbsp; ] Scandinavia&lt;br&gt;[&amp;nbsp;&amp;nbsp;&amp;nbsp; ] East US" style="whiteSpace=wrap;html=1;aspect=fixed;" vertex="1" parent="1">
          <mxGeometry x="60" y="340" width="190" height="190" as="geometry" />
        </mxCell>
        <mxCell id="ZgFY1jkxqWkdZP5Hp9M9-7" value="" style="endArrow=none;html=1;rounded=0;entryX=0.5;entryY=1;entryDx=0;entryDy=0;exitX=0.571;exitY=0.014;exitDx=0;exitDy=0;exitPerimeter=0;" edge="1" parent="1" source="ZgFY1jkxqWkdZP5Hp9M9-6" target="ZgFY1jkxqWkdZP5Hp9M9-2">
          <mxGeometry width="50" height="50" relative="1" as="geometry">
            <mxPoint x="300" y="340" as="sourcePoint" />
            <mxPoint x="350" y="320" as="targetPoint" />
          </mxGeometry>
        </mxCell>
        <mxCell id="ZgFY1jkxqWkdZP5Hp9M9-8" value="Appbox 1. Order?" style="rounded=0;whiteSpace=wrap;html=1;" vertex="1" parent="1">
          <mxGeometry x="60" y="560" width="120" height="60" as="geometry" />
        </mxCell>
        <mxCell id="ZgFY1jkxqWkdZP5Hp9M9-9" value="" style="endArrow=none;html=1;rounded=0;entryX=0.5;entryY=1;entryDx=0;entryDy=0;exitX=0.583;exitY=-0.033;exitDx=0;exitDy=0;exitPerimeter=0;" edge="1" parent="1" source="ZgFY1jkxqWkdZP5Hp9M9-8" target="ZgFY1jkxqWkdZP5Hp9M9-6">
          <mxGeometry width="50" height="50" relative="1" as="geometry">
            <mxPoint x="150" y="560" as="sourcePoint" />
            <mxPoint x="200" y="510" as="targetPoint" />
          </mxGeometry>
        </mxCell>
        <mxCell id="ZgFY1jkxqWkdZP5Hp9M9-11" value="type /order whenever you are ready again" style="rounded=0;whiteSpace=wrap;html=1;" vertex="1" parent="1">
          <mxGeometry x="290" y="590" width="120" height="60" as="geometry" />
        </mxCell>
        <mxCell id="ZgFY1jkxqWkdZP5Hp9M9-12" value="Here is your invite. Pick Appbox 1" style="rounded=0;whiteSpace=wrap;html=1;" vertex="1" parent="1">
          <mxGeometry x="290" y="510" width="120" height="60" as="geometry" />
        </mxCell>
        <mxCell id="ZgFY1jkxqWkdZP5Hp9M9-13" value="Yes" style="endArrow=none;html=1;rounded=0;entryX=1;entryY=0.25;entryDx=0;entryDy=0;exitX=0;exitY=0.25;exitDx=0;exitDy=0;" edge="1" parent="1" source="ZgFY1jkxqWkdZP5Hp9M9-12" target="ZgFY1jkxqWkdZP5Hp9M9-8">
          <mxGeometry width="50" height="50" relative="1" as="geometry">
            <mxPoint x="149.28932188134524" y="600" as="sourcePoint" />
            <mxPoint x="149.28932188134524" y="550" as="targetPoint" />
          </mxGeometry>
        </mxCell>
        <mxCell id="ZgFY1jkxqWkdZP5Hp9M9-14" value="" style="endArrow=none;html=1;rounded=0;entryX=1;entryY=0.75;entryDx=0;entryDy=0;exitX=0;exitY=0.75;exitDx=0;exitDy=0;" edge="1" parent="1" source="ZgFY1jkxqWkdZP5Hp9M9-11" target="ZgFY1jkxqWkdZP5Hp9M9-8">
          <mxGeometry width="50" height="50" relative="1" as="geometry">
            <mxPoint x="210" y="640" as="sourcePoint" />
            <mxPoint x="260" y="590" as="targetPoint" />
          </mxGeometry>
        </mxCell>
        <mxCell id="ZgFY1jkxqWkdZP5Hp9M9-15" value="No" style="edgeLabel;html=1;align=center;verticalAlign=middle;resizable=0;points=[];" vertex="1" connectable="0" parent="ZgFY1jkxqWkdZP5Hp9M9-14">
          <mxGeometry x="-0.069" y="1" relative="1" as="geometry">
            <mxPoint as="offset" />
          </mxGeometry>
        </mxCell>
        <mxCell id="ZgFY1jkxqWkdZP5Hp9M9-16" value="Yes" style="text;html=1;align=center;verticalAlign=middle;resizable=0;points=[];autosize=1;strokeColor=none;fillColor=none;" vertex="1" parent="1">
          <mxGeometry x="180" y="310" width="40" height="20" as="geometry" />
        </mxCell>
        <mxCell id="ZgFY1jkxqWkdZP5Hp9M9-18" value="&lt;div&gt;No&lt;/div&gt;" style="text;html=1;align=center;verticalAlign=middle;resizable=0;points=[];autosize=1;strokeColor=none;fillColor=none;" vertex="1" parent="1">
          <mxGeometry x="280" y="350" width="30" height="20" as="geometry" />
        </mxCell>
        <mxCell id="ZgFY1jkxqWkdZP5Hp9M9-19" value="" style="curved=1;endArrow=classic;html=1;rounded=0;entryX=0;entryY=0.5;entryDx=0;entryDy=0;" edge="1" parent="1" source="ZgFY1jkxqWkdZP5Hp9M9-2" target="ZgFY1jkxqWkdZP5Hp9M9-11">
          <mxGeometry width="50" height="50" relative="1" as="geometry">
            <mxPoint x="255" y="390" as="sourcePoint" />
            <mxPoint x="305" y="340" as="targetPoint" />
            <Array as="points">
              <mxPoint x="310" y="360" />
              <mxPoint x="305" y="390" />
              <mxPoint x="255" y="340" />
              <mxPoint x="260" y="440" />
            </Array>
          </mxGeometry>
        </mxCell>
        <mxCell id="ZgFY1jkxqWkdZP5Hp9M9-20" value="Yes" style="text;html=1;align=center;verticalAlign=middle;resizable=0;points=[];autosize=1;strokeColor=none;fillColor=none;" vertex="1" parent="1">
          <mxGeometry x="540" y="140" width="40" height="20" as="geometry" />
        </mxCell>
        <mxCell id="ZgFY1jkxqWkdZP5Hp9M9-21" value="No" style="text;html=1;align=center;verticalAlign=middle;resizable=0;points=[];autosize=1;strokeColor=none;fillColor=none;" vertex="1" parent="1">
          <mxGeometry x="595" y="190" width="30" height="20" as="geometry" />
        </mxCell>
        <mxCell id="ZgFY1jkxqWkdZP5Hp9M9-22" value="Click this url after purchase to link your account" style="rounded=1;whiteSpace=wrap;html=1;" vertex="1" parent="1">
          <mxGeometry x="460" y="500" width="120" height="60" as="geometry" />
        </mxCell>
        <mxCell id="ZgFY1jkxqWkdZP5Hp9M9-23" value="" style="endArrow=none;html=1;rounded=0;exitX=1;exitY=0.25;exitDx=0;exitDy=0;entryX=0;entryY=0.5;entryDx=0;entryDy=0;" edge="1" parent="1" source="ZgFY1jkxqWkdZP5Hp9M9-12" target="ZgFY1jkxqWkdZP5Hp9M9-22">
          <mxGeometry width="50" height="50" relative="1" as="geometry">
            <mxPoint x="400" y="550" as="sourcePoint" />
            <mxPoint x="450" y="500" as="targetPoint" />
          </mxGeometry>
        </mxCell>
        <mxCell id="ZgFY1jkxqWkdZP5Hp9M9-25" value="&lt;div&gt;If SHARE &amp;gt; Roles &quot;Movian&quot; and &quot;Share&quot;. + Add tag [SHARE] to user&lt;/div&gt;&lt;div&gt;&lt;br&gt;&lt;/div&gt;&lt;div&gt;If MovioBox &amp;gt; Roles &quot;Movian&quot; and &quot;MovioBox&quot;. + Add tag [BOX] to user&lt;br&gt;&lt;/div&gt;" style="rounded=1;whiteSpace=wrap;html=1;" vertex="1" parent="1">
          <mxGeometry x="620" y="470" width="165" height="120" as="geometry" />
        </mxCell>
        <mxCell id="ZgFY1jkxqWkdZP5Hp9M9-26" value="" style="endArrow=none;html=1;rounded=0;exitX=1;exitY=0.5;exitDx=0;exitDy=0;entryX=0;entryY=0.5;entryDx=0;entryDy=0;" edge="1" parent="1" source="ZgFY1jkxqWkdZP5Hp9M9-22" target="ZgFY1jkxqWkdZP5Hp9M9-25">
          <mxGeometry width="50" height="50" relative="1" as="geometry">
            <mxPoint x="590" y="570" as="sourcePoint" />
            <mxPoint x="640" y="520" as="targetPoint" />
          </mxGeometry>
        </mxCell>
        <mxCell id="ZgFY1jkxqWkdZP5Hp9M9-27" value="Here are important guides I want you to read as a first time customer with Movio&lt;br&gt;&lt;br&gt;1. Claim your invite: https://wiki.movio.pro/en/quick-start#quick-start-guide-part-2&lt;br&gt;&lt;br&gt;2. Optimise your client for direct play, we don&#39;t allow transcoding for 4K content: https://wiki.movio.pro/en/optimize-quality&lt;br&gt;&lt;br&gt;3. And finally, set your home-screen to get the best Movio Experience possible: https://wiki.movio.pro/en/home-screen#reorder-library-sections " style="rounded=1;whiteSpace=wrap;html=1;" vertex="1" parent="1">
          <mxGeometry x="820" y="420" width="240" height="240" as="geometry" />
        </mxCell>
        <mxCell id="ZgFY1jkxqWkdZP5Hp9M9-28" value="" style="endArrow=none;html=1;rounded=0;exitX=1;exitY=0.5;exitDx=0;exitDy=0;entryX=0;entryY=0.5;entryDx=0;entryDy=0;" edge="1" parent="1" source="ZgFY1jkxqWkdZP5Hp9M9-25" target="ZgFY1jkxqWkdZP5Hp9M9-27">
          <mxGeometry width="50" height="50" relative="1" as="geometry">
            <mxPoint x="800" y="570" as="sourcePoint" />
            <mxPoint x="850" y="520" as="targetPoint" />
          </mxGeometry>
        </mxCell>
        <mxCell id="ZgFY1jkxqWkdZP5Hp9M9-29" value="" style="curved=1;endArrow=classic;html=1;rounded=0;entryX=0.5;entryY=1;entryDx=0;entryDy=0;exitX=0.5;exitY=0;exitDx=0;exitDy=0;" edge="1" parent="1" source="ZgFY1jkxqWkdZP5Hp9M9-27" target="ZgFY1jkxqWkdZP5Hp9M9-4">
          <mxGeometry width="50" height="50" relative="1" as="geometry">
            <mxPoint x="850" y="370" as="sourcePoint" />
            <mxPoint x="900" y="320" as="targetPoint" />
            <Array as="points">
              <mxPoint x="900" y="370" />
              <mxPoint x="880" y="360" />
              <mxPoint x="850" y="320" />
              <mxPoint x="760" y="380" />
              <mxPoint x="670" y="340" />
            </Array>
          </mxGeometry>
        </mxCell>
      </root>
    </mxGraphModel>
  </diagram>
</mxfile>
